A director tries to film a group of junkies in Leach's room while they are waiting for Cowboy to bring their heroin connection.

----------------------------------------------------------------------------------
General
Format                                   : AVI
Format/Info                              : Audio Video Interleave
File size                                : 585 MiB
Duration                                 : 1h 42mn
Overall bit rate                         : 799 Kbps
Writing library                          : VirtualDub build 13720/release

Video
ID                                       : 0
Format                                   : MPEG-4 Visual
Format settings, BVOP                    : 1
Format settings, QPel                    : No
Format settings, GMC                     : No warppoints
Format settings, Matrix                  : Default (H.263)
Muxing mode                              : Packed bitstream
Codec ID                                 : DX50
Codec ID/Hint                            : DivX 5
Duration                                 : 1h 42mn
Source duration                          : 1h 31mn
Bit rate                                 : 530 Kbps
Width                                    : 720 pixels
Height                                   : 544 pixels
Display aspect ratio                     : 4:3
Frame rate                               : 29.970 fps
Color space                              : YUV
Chroma subsampling                       : 4:2:0
Bit depth                                : 8 bits
Scan type                                : Progressive
Compression mode                         : Lossy
Bits/(Pixel*Frame)                       : 0.045
Stream size                              : 346 MiB (59%)
Writing library                          : DivX 5.2.1 Beta (UTC 2004-09-08)

Audio
ID                                       : 1
Format                                   : ADPCM
Codec ID                                 : 2
Duration                                 : 1h 42mn
Source duration                          : 1h 31mn
Bit rate mode                            : Constant
Bit rate                                 : 352.8 Kbps
Channel(s)                               : 2 channels
Sampling rate                            : 44.1 KHz
Bit depth                                : 4 bits
Stream size                              : 232 MiB (40%)
Interleave, duration                     : 46 ms (1.38 video frame)
Interleave, preload duration             : 461 ms
----------------------------------------------------------------------------------

ENJOY!!! BE SEEING YOU!